<svg class="img-fluid" id="outputsvg" xmlns="http://www.w3.org/2000/svg" style="" width="200" height="200" viewBox="0 0 2000 2000"><g id="l2CIQp52c1jkIMp0UnJjVFs" fill="rgb(18,66,114)" style="transform: none;"><g style="transform: none;"><path id="pYf232hCq" d="M116 1596 c-49 -18 -74 -43 -85 -84 -10 -32 -10 -32 28 -32 31 0 38 4 48 29 22 59 133 47 133 -14 0 -29 -24 -46 -97 -70 -66 -21 -103 -62 -103 -114 0 -75 72 -120 167 -106 48 7 98 49 105 90 5 23 3 25 -33 25 -26 0 -39 -5 -39 -13 0 -42 -83 -63 -113 -29 -36 39 -14 69 71 97 120 39 157 144 72 207 -35 25 -106 31 -154 14z"></path><path id="pDKttolgm" d="M443 1596 c-63 -28 -73 -62 -73 -233 l0 -153 34 0 34 0 4 150 c3 137 5 151 25 171 27 28 70 19 83 -17 6 -14 10 -88 10 -165 l0 -139 35 0 35 0 0 156 c0 165 -7 195 -51 223 -32 19 -101 23 -136 7z"></path><path id="p1FGqSKMC1" d="M1770 1541 c0 -64 -5 -79 -60 -195 -33 -70 -60 -129 -60 -131 0 -3 18 -5 39 -5 l39 0 38 92 38 91 43 -91 c42 -90 43 -92 78 -92 19 0 35 4 35 9 0 5 -27 66 -60 135 -54 114 -60 133 -60 191 l0 65 -35 0 -35 0 0 -69z"></path><path id="pASzExgeE" d="M710 1400 l0 -200 68 0 c139 1 204 39 206 123 2 83 -43 125 -145 134 l-59 6 0 68 0 69 -35 0 -35 0 0 -200z m182 -27 c10 -9 18 -28 18 -43 0 -38 -32 -63 -83 -64 l-42 -1 -3 63 -3 62 47 0 c30 0 54 -6 66 -17z"></path><path id="pLO0twebG" d="M1050 1405 l0 -195 90 0 c133 0 180 32 180 124 0 77 -64 126 -164 126 l-36 0 0 70 0 70 -35 0 -35 0 0 -195z m188 -47 c11 -23 11 -33 0 -55 -12 -25 -20 -28 -66 -31 l-52 -3 0 61 0 61 52 -3 c46 -3 54 -6 66 -30z"></path><path id="p1GVDjmKjN" d="M1380 1405 l0 -195 40 0 40 0 0 165 0 165 90 0 90 0 0 30 0 30 -130 0 -130 0 0 -195z"></path><path id="p105ue9iYl" d="M1450 1091 c-60 -13 -147 -58 -192 -100 -48 -43 -92 -116 -103 -168 -4 -19 -13 -33 -21 -33 -8 0 -14 -7 -14 -15 0 -13 21 -15 130 -15 109 0 130 2 130 15 0 8 -7 15 -15 15 -19 0 -19 4 0 40 8 16 36 42 62 57 69 40 160 38 265 -5 42 -18 87 -32 101 -32 37 0 127 31 127 45 0 6 -14 30 -30 52 -34 46 -111 100 -180 127 -50 20 -203 30 -260 17z"></path><path id="pycDJ0R62" d="M205 1068 c-23 -69 -125 -622 -125 -677 0 -20 5 -21 94 -21 l95 0 10 53 c6 28 29 151 53 271 l42 220 43 -170 c51 -202 74 -298 80 -341 l5 -33 124 0 c120 0 124 1 128 23 9 38 58 360 63 410 3 26 9 47 12 47 4 0 12 -20 19 -45 l12 -45 110 0 c87 0 110 3 110 14 0 7 -8 16 -17 18 -13 4 -30 44 -63 146 l-44 142 -137 0 -136 0 -17 -92 c-16 -84 -32 -178 -52 -293 l-7 -40 -8 30 c-52 192 -101 372 -104 383 -3 9 -41 12 -145 12 -104 0 -142 -3 -145 -12z"></path><path id="pZjO8QTIh" d="M896 672 c-3 -5 16 -75 42 -156 l47 -147 100 -1 c117 -2 112 -18 53 156 -31 94 -37 120 -27 127 8 4 11 10 9 12 -10 9 -218 18 -224 9z"></path></g></g><g id="l2kglyPJYHtbavo9hUu6uJl" fill="rgb(243,123,71)" style="transform: none;"><g style="transform: none;"><path id="pPiX56eZi" d="M860 758 c4 -18 15 -51 23 -73 l14 -40 122 0 122 -1 23 -56 c60 -146 143 -213 303 -239 249 -41 471 144 473 394 l0 47 -544 0 -544 0 8 -32z m870 -121 c0 -17 -67 -81 -107 -101 -60 -30 -164 -17 -226 28 -31 23 -60 69 -50 80 4 3 91 6 195 6 147 0 188 -3 188 -13z"></path></g></g></svg>